# xmcd
#
# Track frame offsets:
#	150
#	11051
#	30749
#	46514
#	61270
#	79395
#	99767
#	111512
#	130062
#	148335
#
# Disc length: 2190 seconds
# Revision: 1
# Processed by: cddbd v1.5.2PL0 Copyright (c) Steve Scherf et al.
# Submitted via: dBpowerAMP V12.0
#
DISCID=81088c0a
DTITLE=James Intveld - Have Faith
DYEAR=2008
DGENRE=Country
TTITLE0=Pretty World
TTITLE1=This Place Ain't What It Used to Be
TTITLE2=Let's Get Started
TTITLE3=Something You Can't Buy
TTITLE4=A Woman's Touch
TTITLE5=Have Faith
TTITLE6=Motel Time
TTITLE7=If Tears Could Talk
TTITLE8=Small Town Boy
TTITLE9=Walk with Me
EXTD=
EXTT0=
EXTT1=
EXTT2=
EXTT3=
EXTT4=
EXTT5=
EXTT6=
EXTT7=
EXTT8=
EXTT9=
PLAYORDER=
